<svg width="254" height="116" viewBox="0 0 254 116" fill="none" xmlns="http://www.w3.org/2000/svg" xmlns:xlink="http://www.w3.org/1999/xlink">
<path d="M0.537,22.6C0.537,20.185 0.537,18.978 0.641,17.962C1.608,8.528 9.066,1.071 18.499,0.104C19.515,0 20.723,0 23.137,0L231.081,0C233.497,0 234.703,0 235.721,0.104C245.153,1.071 252.611,8.528 253.577,17.962C253.681,18.978 253.681,20.185 253.681,22.6L253.681,93.105C253.681,95.519 253.681,96.727 253.577,97.743C252.611,107.176 245.153,114.634 235.721,115.601C234.703,115.705 233.497,115.705 231.081,115.705L23.137,115.705C20.723,115.705 19.515,115.705 18.499,115.601C9.066,114.634 1.608,107.176 0.641,97.743C0.537,96.727 0.537,95.519 0.537,93.105L0.537,22.6Z" fill="#0B1C47"/>
</svg>
