<svg width="262" height="116" viewBox="0 0 262 116" fill="none" xmlns="http://www.w3.org/2000/svg" xmlns:xlink="http://www.w3.org/1999/xlink">
<path d="M0.166,22.895C0.166,20.481 0.166,19.273 0.27,18.257C1.236,8.824 8.694,1.366 18.127,0.399C19.144,0.295 20.351,0.295 22.766,0.295L237.452,0.295C239.866,0.295 241.074,0.295 242.09,0.399C251.524,1.366 258.98,8.824 259.948,18.257C260.052,19.273 260.052,20.481 260.052,22.895L260.052,92.895C260.052,95.31 260.052,96.517 259.948,97.534C258.98,106.967 251.524,114.425 242.09,115.391C241.074,115.495 239.866,115.495 237.452,115.495L22.766,115.495C20.351,115.495 19.144,115.495 18.127,115.391C8.694,114.425 1.236,106.967 0.27,97.534C0.166,96.517 0.166,95.31 0.166,92.895L0.166,22.895Z" fill="#FFFFFF" stroke="#0B1C47" stroke-width="2" stroke-miterlimit="3.999327"/>
</svg>
