<svg width="262" height="116" viewBox="0 0 262 116" fill="none" xmlns="http://www.w3.org/2000/svg" xmlns:xlink="http://www.w3.org/1999/xlink">
<path d="M0.166,22.6C0.166,20.185 0.166,18.978 0.27,17.961C1.236,8.528 8.694,1.071 18.127,0.104C19.144,0 20.351,0 22.766,0L237.452,0C239.866,0 241.074,0 242.09,0.104C251.524,1.071 258.98,8.528 259.948,17.961C260.052,18.978 260.052,20.185 260.052,22.6L260.052,92.6C260.052,95.015 260.052,96.222 259.948,97.238C258.98,106.672 251.524,114.129 242.09,115.096C241.074,115.2 239.866,115.2 237.452,115.2L22.766,115.2C20.351,115.2 19.144,115.2 18.127,115.096C8.694,114.129 1.236,106.672 0.27,97.238C0.166,96.222 0.166,95.015 0.166,92.6L0.166,22.6Z" fill="#0B1C47" fill-opacity="0.77"/>
</svg>
